<?xml version="1.0" encoding="utf-8"?>
<!-- Generator: Adobe Illustrator 16.0.0, SVG Export Plug-In . SVG Version: 6.00 Build 0)  -->
<!DOCTYPE svg PUBLIC "-//W3C//DTD SVG 1.1//EN" "http://www.w3.org/Graphics/SVG/1.1/DTD/svg11.dtd">
<svg version="1.1" id="Layer_1" xmlns="http://www.w3.org/2000/svg" xmlns:xlink="http://www.w3.org/1999/xlink" x="0px" y="0px"
	 width="95px" height="55px" viewBox="0 0 95 55" enable-background="new 0 0 95 55" xml:space="preserve">
<g>
	<g>
		<path fill="#F9A01B" d="M41.464,30.182c-0.01-0.021-1.063-2.168-2.086-4.095c-0.824-1.553-0.261-2.733-0.217-2.825
			c0.042-0.094,0.994-2.346,0.784-5.606c-0.158-2.487-0.993-4.815-2.544-7.115c-3.277-4.852-7.906-7.315-14.149-7.53
			c-4.007-0.135-6.568,0.402-6.675,0.424c-0.234,0.051-0.405,0.214-0.497,0.415c-3.453,0.157-6.785,1.431-9.455,3.633
			C6.618,7.489,6.61,7.495,6.604,7.503C6.59,7.511,6.577,7.523,6.568,7.537C6.553,7.548,6.542,7.563,6.531,7.576
			C6.52,7.593,6.508,7.61,6.493,7.63c-0.01,0.018-0.02,0.037-0.031,0.061c-0.018,0.036-0.03,0.073-0.038,0.111
			c-0.01,0.04-0.015,0.083-0.015,0.125c0,0.029,0.003,0.06,0.008,0.089v0.002C6.422,8.046,6.43,8.072,6.439,8.101
			c0,0,0.004,0.005,0.004,0.009c0.008,0.026,0.021,0.053,0.035,0.08c0.002,0.004,0.002,0.006,0.004,0.006
			C6.497,8.222,6.51,8.244,6.528,8.265C6.53,8.269,6.53,8.269,6.531,8.269L6.54,8.28l0.922,1.175
			C7.458,9.458,7.458,9.46,7.454,9.462c-0.708,0.636-1.353,1.342-1.918,2.109c-0.016,0.021-0.032,0.042-0.045,0.063
			c-0.121,0.166-0.24,0.337-0.354,0.509c-0.032,0.045-0.06,0.09-0.089,0.135c-0.096,0.15-0.192,0.301-0.284,0.455
			c-0.036,0.058-0.069,0.122-0.104,0.182c-0.08,0.142-0.162,0.284-0.239,0.429c-0.035,0.071-0.072,0.14-0.108,0.212
			c-0.068,0.137-0.137,0.276-0.202,0.417c-0.037,0.077-0.073,0.157-0.108,0.236c-0.061,0.134-0.119,0.271-0.173,0.409
			c-0.037,0.086-0.07,0.171-0.101,0.257c-0.055,0.133-0.102,0.271-0.15,0.406c-0.031,0.091-0.06,0.182-0.09,0.272
			c-0.044,0.134-0.084,0.271-0.125,0.407c-0.027,0.094-0.057,0.189-0.08,0.284c-0.037,0.136-0.071,0.277-0.104,0.412
			c-0.022,0.097-0.045,0.194-0.066,0.29c-0.029,0.14-0.055,0.282-0.081,0.424c-0.017,0.099-0.037,0.194-0.052,0.292
			c-0.022,0.148-0.042,0.297-0.061,0.446c-0.011,0.094-0.026,0.186-0.036,0.282c-0.018,0.165-0.027,0.33-0.039,0.496
			c-0.006,0.08-0.016,0.159-0.019,0.24c-0.013,0.246-0.021,0.494-0.021,0.744v0.001c0,0.548,0.034,1.089,0.096,1.619
			c0.804,6.957,6.712,12.361,13.887,12.361c0.232,0,0.464-0.007,0.692-0.02c0.062-0.002,0.125-0.008,0.186-0.012
			c0.167-0.01,0.329-0.022,0.492-0.038c0.086-0.007,0.17-0.02,0.254-0.03c0.136-0.015,0.274-0.031,0.413-0.05
			c0.094-0.014,0.192-0.033,0.287-0.048c0.121-0.021,0.245-0.042,0.364-0.067c0.103-0.018,0.207-0.04,0.311-0.064
			c0.112-0.023,0.22-0.046,0.329-0.074c0.109-0.026,0.22-0.055,0.331-0.086c0.096-0.026,0.192-0.055,0.288-0.083
			c0.118-0.034,0.234-0.069,0.352-0.107c0.083-0.027,0.164-0.055,0.249-0.083c0.126-0.044,0.251-0.087,0.376-0.135
			c0.065-0.024,0.128-0.049,0.188-0.074c0.143-0.057,0.284-0.114,0.424-0.172c0.028-0.014,0.05-0.025,0.079-0.038
			c1.107-0.487,2.142-1.115,3.078-1.86c0,0,0.002-0.003,0.006-0.003c0.153-0.125,0.305-0.253,0.456-0.379
			c0.002-0.006,0.007-0.009,0.009-0.012l0.725,0.704c-2.728,2.417-6.205,3.739-9.861,3.739c-4.229,0-8.314-1.545-10.772-4.619
			C5.38,29.419,5,28.795,4.94,28.722c-0.254-0.31-0.711-0.356-1.023-0.103c-0.31,0.255-0.357,0.712-0.103,1.022
			c0.048,0.058,4.731,5.862,3.657,10.305c-0.095,0.393,0.145,0.783,0.535,0.88c0.058,0.012,0.116,0.021,0.173,0.021
			c0.327,0,0.625-0.225,0.706-0.558c0.563-2.33-0.151-4.862-1.119-6.969c2.576,1.75,5.699,2.664,9.045,2.664
			c4.127,0,8.043-1.569,11.037-4.42c0.013-0.013,0.028-0.025,0.043-0.041c0.037-0.037,0.067-0.077,0.089-0.123
			c0.011-0.015,0.018-0.032,0.024-0.05c0.007-0.015,0.012-0.03,0.016-0.045c0.031-0.087,0.036-0.185,0.018-0.276
			c0-0.013-0.003-0.028-0.011-0.041c-0.022-0.095-0.074-0.184-0.149-0.258l-0.026-0.025l-1.088-1.055
			c0.012-0.013,0.021-0.022,0.032-0.035c0.143-0.145,0.279-0.291,0.411-0.441c0.014-0.011,0.024-0.026,0.036-0.037
			c0.135-0.153,0.268-0.311,0.397-0.47c0.009-0.01,0.018-0.023,0.027-0.032c0.13-0.161,0.256-0.326,0.38-0.493
			c0.009-0.01,0.017-0.024,0.027-0.035c0.117-0.167,0.237-0.335,0.354-0.508c0.009-0.013,0.016-0.028,0.025-0.043
			c0.114-0.17,0.223-0.343,0.328-0.517c0.008-0.019,0.021-0.038,0.031-0.055c0.103-0.172,0.202-0.347,0.296-0.524
			c0.012-0.022,0.026-0.045,0.037-0.07c0.092-0.172,0.18-0.346,0.265-0.525c0.014-0.03,0.027-0.061,0.04-0.089
			c0.081-0.172,0.16-0.345,0.234-0.524c0.016-0.036,0.03-0.076,0.043-0.113c0.07-0.169,0.139-0.339,0.199-0.511
			c0.019-0.049,0.032-0.097,0.049-0.142c0.059-0.167,0.116-0.332,0.165-0.499c0.019-0.062,0.035-0.122,0.053-0.181
			c0.045-0.158,0.092-0.316,0.133-0.475c0.018-0.074,0.035-0.147,0.051-0.222c0.035-0.147,0.072-0.297,0.101-0.448
			c0.018-0.087,0.033-0.18,0.05-0.27c0.022-0.135,0.049-0.271,0.07-0.411c0.017-0.11,0.029-0.22,0.044-0.33
			c0.015-0.121,0.032-0.24,0.046-0.362c0.014-0.137,0.021-0.277,0.031-0.416c0.005-0.096,0.016-0.191,0.02-0.288
			c0.015-0.23,0.018-0.465,0.018-0.699c0,0,0-0.008,0-0.013c0-7.72-6.259-13.981-13.971-13.981c-0.225,0-0.449,0.006-0.67,0.018
			c-0.064,0.002-0.128,0.008-0.191,0.011c-0.159,0.01-0.313,0.021-0.467,0.036c-0.078,0.008-0.155,0.016-0.229,0.024
			c-0.146,0.016-0.287,0.035-0.432,0.055c-0.075,0.01-0.152,0.022-0.228,0.033c-0.151,0.024-0.303,0.053-0.453,0.081
			c-0.064,0.012-0.125,0.023-0.186,0.037c-0.207,0.042-0.41,0.089-0.614,0.14c-0.057,0.016-0.112,0.033-0.171,0.05
			c-0.145,0.038-0.292,0.077-0.435,0.123c-0.086,0.026-0.168,0.053-0.253,0.081c-0.117,0.039-0.229,0.076-0.343,0.116
			c-0.093,0.032-0.18,0.064-0.273,0.099c-0.104,0.042-0.207,0.083-0.312,0.125c-0.091,0.038-0.182,0.074-0.275,0.113
			c-0.101,0.042-0.2,0.089-0.3,0.135c-0.157,0.074-0.314,0.149-0.469,0.229c-0.102,0.049-0.201,0.098-0.299,0.151
			c-0.104,0.057-0.206,0.115-0.307,0.173C9.804,7.76,9.728,7.803,9.653,7.848C9.55,7.909,9.448,7.973,9.347,8.037
			c-0.07,0.041-0.137,0.087-0.208,0.132C9.037,8.234,8.937,8.304,8.837,8.373C8.773,8.417,8.711,8.46,8.65,8.505
			C8.545,8.58,8.442,8.655,8.338,8.731C8.335,8.735,8.333,8.738,8.328,8.741L7.759,8.015c2.589-1.982,5.781-3.065,9.053-3.065
			c8.219,0,14.918,6.708,14.918,14.955c0,2.779-0.767,5.489-2.218,7.843c-0.159,0.264-0.081,0.608,0.184,0.773
			c0.091,0.058,0.195,0.083,0.293,0.083c0.188,0,0.374-0.098,0.476-0.267c1.56-2.532,2.382-5.447,2.382-8.433
			c0-7.333-4.926-13.529-11.631-15.455c0.611-0.014,1.276-0.012,1.985,0.015c5.748,0.197,9.997,2.45,12.994,6.889
			c1.405,2.079,2.158,4.171,2.301,6.395c0.184,2.871-0.65,4.889-0.647,4.889c0,0,0,0,0,0c-0.042,0.077-0.949,1.88,0.246,4.128
			c1.013,1.906,2.054,4.032,2.099,4.117c0.018,0.026,0.409,0.674-0.041,1.032c-0.239,0.19-0.502,0.218-0.806,0.247
			c-0.444,0.045-1.487,0.146-1.487,1.514c0,1.139-0.033,1.875-0.1,2.198c-0.362,0.196-0.782,0.565-0.909,1.068
			c-0.11,0.427,0.01,0.856,0.319,1.156c-0.003,0.187-0.406,0.705-0.623,0.985l-0.195,0.252c-0.526,0.692-0.454,1.864-0.327,3.106
			c0.025,0.256,0.052,0.465,0.052,0.535c-0.05,0.25-0.396,1.065-2.63,1.1c-0.699,0.016-1.463-0.074-2.204-0.154
			c-2.22-0.237-4.736-0.506-6.192,1.736c-0.021,0.03-0.04,0.065-0.053,0.101c-1.288,2.872-2.091,4.453-2.098,4.469
			c-0.183,0.357-0.04,0.795,0.319,0.978c0.105,0.053,0.217,0.078,0.329,0.078c0.265,0,0.521-0.144,0.649-0.397
			c0.032-0.064,0.814-1.605,2.104-4.482c0.907-1.346,2.418-1.288,4.786-1.034c0.784,0.083,1.605,0.175,2.379,0.159
			c3.224-0.045,3.896-1.592,4.035-2.253c0.044-0.216,0.021-0.474-0.031-0.981c-0.044-0.439-0.183-1.787,0.039-2.08l0.186-0.239
			c0.556-0.716,1.386-1.784,0.628-2.731c0.055-0.048,0.125-0.096,0.169-0.112c0.747-0.248,0.82-1.195,0.82-3.456
			c0-0.017,0-0.032,0.001-0.048c0.057-0.008,0.121-0.014,0.176-0.02c0.395-0.039,0.992-0.099,1.568-0.557
			C42.215,32.132,41.808,30.73,41.464,30.182z M24.878,15.138l3.268,8.72h-1.914l-0.604-1.799h-3.151l-0.598,1.799h-1.907
			l3.241-8.72H24.878z M14.396,15.138l1.965,6.557l1.975-6.557h2l-3.036,8.72h-1.874l-3.027-8.72H14.396z M8.713,15.017
			c0.483,0,0.923,0.065,1.318,0.2c0.396,0.134,0.732,0.319,1.013,0.56c0.28,0.241,0.493,0.525,0.646,0.854
			c0.153,0.33,0.229,0.691,0.229,1.083h-1.798c0-0.184-0.029-0.354-0.085-0.511c-0.059-0.155-0.147-0.288-0.267-0.4
			c-0.122-0.113-0.27-0.2-0.449-0.261C9.139,16.48,8.927,16.45,8.682,16.45c-0.233,0-0.439,0.026-0.614,0.078
			c-0.173,0.051-0.316,0.123-0.43,0.216c-0.115,0.093-0.202,0.199-0.258,0.324c-0.059,0.123-0.088,0.255-0.088,0.396
			c0,0.287,0.146,0.527,0.44,0.721c0.294,0.195,0.724,0.375,1.291,0.543c0.478,0.147,0.895,0.311,1.258,0.49
			c0.361,0.18,0.663,0.382,0.903,0.609c0.242,0.229,0.425,0.484,0.551,0.768c0.123,0.282,0.185,0.603,0.185,0.961
			c0,0.382-0.076,0.725-0.225,1.023c-0.151,0.301-0.363,0.553-0.638,0.76c-0.277,0.206-0.61,0.365-0.999,0.474
			c-0.391,0.109-0.824,0.165-1.305,0.165c-0.288,0-0.574-0.025-0.862-0.075c-0.289-0.05-0.563-0.127-0.823-0.231
			c-0.262-0.104-0.506-0.232-0.729-0.39c-0.226-0.155-0.419-0.339-0.585-0.551c-0.167-0.212-0.296-0.453-0.389-0.723
			c-0.093-0.269-0.14-0.566-0.14-0.894h1.804c0,0.263,0.042,0.487,0.125,0.67c0.083,0.184,0.202,0.332,0.351,0.445
			c0.149,0.116,0.331,0.196,0.542,0.25c0.212,0.05,0.447,0.078,0.707,0.078c0.234,0,0.435-0.023,0.606-0.076
			c0.171-0.049,0.314-0.117,0.425-0.207c0.112-0.087,0.195-0.193,0.251-0.314c0.052-0.121,0.079-0.254,0.079-0.392
			c0-0.152-0.021-0.29-0.065-0.409c-0.045-0.124-0.129-0.235-0.255-0.339c-0.126-0.104-0.3-0.205-0.522-0.305
			c-0.22-0.1-0.506-0.206-0.859-0.316c-0.398-0.129-0.774-0.273-1.13-0.431c-0.351-0.162-0.663-0.349-0.93-0.566
			c-0.264-0.219-0.474-0.469-0.627-0.751c-0.154-0.285-0.231-0.614-0.231-0.995c0-0.364,0.08-0.697,0.237-1
			c0.157-0.3,0.381-0.557,0.665-0.769c0.286-0.212,0.625-0.376,1.019-0.496C7.81,15.075,8.241,15.017,8.713,15.017z"/>
		<polygon fill="#F9A01B" points="24.044,17.342 22.96,20.605 25.14,20.605 		"/>
	</g>
	<g>
		<g>
			<path fill="#F9A01B" d="M46.669,41.348v-2.651c1.581,0.588,3.37,0.883,5.362,0.883c2.423,0,3.634-0.809,3.634-2.43
				c0-1.177-0.741-1.767-2.23-1.767h-2.472c-3.232,0-4.847-1.472-4.847-4.417c0-3.238,2.299-4.857,6.901-4.857
				c1.767,0,3.44,0.258,5.021,0.772v2.651c-1.581-0.59-3.255-0.885-5.021-0.885c-2.649,0-3.975,0.774-3.975,2.318
				c0,1.179,0.64,1.768,1.921,1.768h2.472c3.439,0,5.157,1.472,5.157,4.416c0,3.313-2.186,4.97-6.561,4.97
				C50.039,42.119,48.25,41.861,46.669,41.348z"/>
			<path fill="#F9A01B" d="M77.037,26.219l-6.921,15.788h-3.148l-6.626-15.788h3.479l4.891,12.09l4.883-12.09H77.037z"/>
			<path fill="#F9A01B" d="M77.738,42.007h-3.004l6.701-15.788h3.147l6.847,15.788h-3.148l-1.798-4.304h-5.245l1.007-2.54h3.178
				l-2.484-5.93L77.738,42.007z"/>
		</g>
		<g>
			<path fill="#F9A01B" d="M51.678,12.156v0.891h-4.461v2.857h4.252v0.892h-4.252v3.869h-1.101v-8.509H51.678z"/>
			<path fill="#F9A01B" d="M52.929,17.381v-5.226h1.1v5.226c0,1.634,0.813,2.452,2.442,2.452c1.625,0,2.438-0.817,2.438-2.452
				v-5.226h1.1v5.226c0,2.228-1.18,3.344-3.538,3.344C54.107,20.725,52.929,19.609,52.929,17.381z"/>
			<path fill="#F9A01B" d="M67.716,12.156v0.891h-2.678v7.618h-1.1v-7.618H61.26v-0.891H67.716z"/>
			<path fill="#F9A01B" d="M68.968,17.381v-5.226h1.098v5.226c0,1.634,0.814,2.452,2.442,2.452c1.625,0,2.438-0.817,2.438-2.452
				v-5.226h1.1v5.226c0,2.228-1.179,3.344-3.538,3.344C70.146,20.725,68.968,19.609,68.968,17.381z"/>
			<path fill="#F9A01B" d="M78.009,20.665v-8.509h3.632c1.618,0,2.427,0.68,2.427,2.041c0,1.107-0.789,1.925-2.374,2.458l2.922,4.01
				h-1.452l-2.707-3.826v-0.721c1.627-0.258,2.44-0.883,2.44-1.873c0-0.786-0.454-1.179-1.356-1.179h-2.429v7.599H78.009z"/>
			<path fill="#F9A01B" d="M91.34,12.156v0.891h-4.462v2.857h4.254v0.892h-4.254v2.975h4.552v0.894h-5.652v-8.509H91.34z"/>
		</g>
	</g>
</g>
</svg>
